<svg width="47" height="48" viewBox="0 0 47 48" fill="none" xmlns="http://www.w3.org/2000/svg">
<rect width="47" height="48" rx="13" fill="#006380"/>
<path d="M19.5991 24.7333V28.4H23.2658M19.5991 19.6V15.2C19.5991 14.811 19.7536 14.438 20.0287 14.1629C20.3037 13.8879 20.6768 13.7333 21.0658 13.7333H32.7991C33.1881 13.7333 33.5611 13.8879 33.8362 14.1629C34.1112 14.438 34.2658 14.811 34.2658 15.2V26.9333C34.2658 27.3223 34.1112 27.6954 33.8362 27.9704C33.5611 28.2455 33.1881 28.4 32.7991 28.4H28.3991L19.5991 19.6ZM19.5991 19.6H15.1991C14.8101 19.6 14.4371 19.7545 14.162 20.0296C13.8869 20.3046 13.7324 20.6777 13.7324 21.0667V32.8C13.7324 33.189 13.8869 33.562 14.162 33.8371C14.4371 34.1121 14.8101 34.2667 15.1991 34.2667H26.9324C27.3214 34.2667 27.6945 34.1121 27.9695 33.8371C28.2446 33.562 28.3991 33.189 28.3991 32.8V28.4L19.5991 19.6ZM19.5991 19.6V23.2667V19.6ZM19.5991 19.6H23.2658H19.5991ZM28.3991 28.4H24.7324H28.3991ZM28.3991 28.4V24.7333V28.4ZM24.7324 19.6H28.3991V23.2667L24.7324 19.6Z" stroke="white"/>
</svg>
