<svg width="36" height="36" viewBox="0 0 36 36" fill="none" xmlns="http://www.w3.org/2000/svg">
<circle cx="18" cy="18" r="18" fill="#F5F5F5"/>
<path d="M25.1927 25.4162H24.5417V10.7708C24.5417 10.3451 24.1919 10 23.7604 10H12.8229C12.3914 10 12.0417 10.3451 12.0417 10.7708V25.4162H11.3906C11.1749 25.4162 11 25.5888 11 25.8016V26.444H25.5833V25.8016C25.5833 25.5888 25.4084 25.4162 25.1927 25.4162ZM15.1667 12.4409C15.1667 12.2281 15.3416 12.0555 15.5573 12.0555H16.8594C17.0751 12.0555 17.25 12.2281 17.25 12.4409V13.7256C17.25 13.9384 17.0751 14.111 16.8594 14.111H15.5573C15.3416 14.111 15.1667 13.9384 15.1667 13.7256V12.4409ZM15.1667 15.5241C15.1667 15.3113 15.3416 15.1387 15.5573 15.1387H16.8594C17.0751 15.1387 17.25 15.3113 17.25 15.5241V16.8088C17.25 17.0217 17.0751 17.1942 16.8594 17.1942H15.5573C15.3416 17.1942 15.1667 17.0217 15.1667 16.8088V15.5241ZM16.8594 20.2775H15.5573C15.3416 20.2775 15.1667 20.1049 15.1667 19.8921V18.6074C15.1667 18.3946 15.3416 18.222 15.5573 18.222H16.8594C17.0751 18.222 17.25 18.3946 17.25 18.6074V19.8921C17.25 20.1049 17.0751 20.2775 16.8594 20.2775ZM19.3333 25.4162H17.25V22.7184C17.25 22.5055 17.4249 22.333 17.6406 22.333H18.9427C19.1584 22.333 19.3333 22.5055 19.3333 22.7184V25.4162ZM21.4167 19.8921C21.4167 20.1049 21.2418 20.2775 21.026 20.2775H19.724C19.5082 20.2775 19.3333 20.1049 19.3333 19.8921V18.6074C19.3333 18.3946 19.5082 18.222 19.724 18.222H21.026C21.2418 18.222 21.4167 18.3946 21.4167 18.6074V19.8921ZM21.4167 16.8088C21.4167 17.0217 21.2418 17.1942 21.026 17.1942H19.724C19.5082 17.1942 19.3333 17.0217 19.3333 16.8088V15.5241C19.3333 15.3113 19.5082 15.1387 19.724 15.1387H21.026C21.2418 15.1387 21.4167 15.3113 21.4167 15.5241V16.8088ZM21.4167 13.7256C21.4167 13.9384 21.2418 14.111 21.026 14.111H19.724C19.5082 14.111 19.3333 13.9384 19.3333 13.7256V12.4409C19.3333 12.2281 19.5082 12.0555 19.724 12.0555H21.026C21.2418 12.0555 21.4167 12.2281 21.4167 12.4409V13.7256Z" fill="#012AA1"/>
</svg>
