<svg width="36" height="37" viewBox="0 0 36 37" fill="none" xmlns="http://www.w3.org/2000/svg">
<ellipse cx="18" cy="18.4995" rx="18" ry="18.4995" fill="#F5F5F5"/>
<path d="M25 15H24V10H14V26H28V18C28 16.34 26.66 15 25 15ZM16 12H22V15H16V12ZM20 23H16V18H20V23ZM22 23C21.45 23 21 22.55 21 22C21 21.45 21.45 21 22 21C22.55 21 23 21.45 23 22C23 22.55 22.55 23 22 23ZM22 20C21.45 20 21 19.55 21 19C21 18.45 21.45 18 22 18C22.55 18 23 18.45 23 19C23 19.55 22.55 20 22 20ZM25 23C24.45 23 24 22.55 24 22C24 21.45 24.45 21 25 21C25.55 21 26 21.45 26 22C26 22.55 25.55 23 25 23ZM25 20C24.45 20 24 19.55 24 19C24 18.45 24.45 18 25 18C25.55 18 26 18.45 26 19C26 19.55 25.55 20 25 20ZM10.5 14C9.83696 14 9.20107 14.2634 8.73223 14.7322C8.26339 15.2011 8 15.837 8 16.5V24.5C8 25.163 8.26339 25.7989 8.73223 26.2678C9.20107 26.7366 9.83696 27 10.5 27C11.163 27 11.7989 26.7366 12.2678 26.2678C12.7366 25.7989 13 25.163 13 24.5V16.5C13 16.1717 12.9353 15.8466 12.8097 15.5433C12.6841 15.24 12.4999 14.9644 12.2678 14.7322C12.0356 14.5001 11.76 14.3159 11.4567 14.1903C11.1534 14.0647 10.8283 14 10.5 14Z" fill="#012AA1"/>
</svg>
