<svg width="36" height="37" viewBox="0 0 36 37" fill="none" xmlns="http://www.w3.org/2000/svg">
<ellipse cx="18" cy="18.4995" rx="18" ry="18.4995" fill="#F5F5F5"/>
<path d="M18 18.6666C19.1046 18.6666 20 17.7712 20 16.6666C20 15.5621 19.1046 14.6666 18 14.6666C16.8954 14.6666 16 15.5621 16 16.6666C16 17.7712 16.8954 18.6666 18 18.6666Z" stroke="#012AA1" stroke-width="2" stroke-linecap="round" stroke-linejoin="round"/>
<path d="M17.9993 11.3333C16.5849 11.3333 15.2283 11.8952 14.2281 12.8954C13.2279 13.8956 12.666 15.2522 12.666 16.6666C12.666 17.928 12.934 18.7533 13.666 19.6666L17.9993 24.6666L22.3327 19.6666C23.0647 18.7533 23.3327 17.928 23.3327 16.6666C23.3327 15.2522 22.7708 13.8956 21.7706 12.8954C20.7704 11.8952 19.4138 11.3333 17.9993 11.3333V11.3333Z" stroke="#012AA1" stroke-width="2" stroke-linecap="round" stroke-linejoin="round"/>
</svg>
