<svg width="36" height="37" viewBox="0 0 36 37" fill="none" xmlns="http://www.w3.org/2000/svg">
<ellipse cx="18" cy="18.4994" rx="18" ry="18.4994" fill="#F5F5F5"/>
<path d="M26.0002 17.999H28.0002C28.0002 12.869 24.1272 9 18.9902 9V11C23.0522 11 26.0002 13.943 26.0002 17.999Z" fill="#012AA1"/>
<path d="M19.0003 15C21.1033 15 22.0003 15.897 22.0003 18H24.0003C24.0003 14.775 22.2253 13 19.0003 13V15ZM22.4223 20.443C22.2301 20.2683 21.9776 20.1752 21.7181 20.1832C21.4585 20.1912 21.2123 20.2998 21.0313 20.486L18.6383 22.947C18.0623 22.837 16.9043 22.476 15.7123 21.287C14.5203 20.094 14.1593 18.933 14.0523 18.361L16.5113 15.967C16.6977 15.7861 16.8064 15.5398 16.8144 15.2802C16.8225 15.0206 16.7292 14.768 16.5543 14.576L12.8593 10.513C12.6843 10.3204 12.4412 10.2035 12.1814 10.1873C11.9217 10.171 11.6659 10.2567 11.4683 10.426L9.29828 12.287C9.12539 12.4605 9.0222 12.6914 9.00828 12.936C8.99328 13.186 8.70728 19.108 13.2993 23.702C17.3053 27.707 22.3233 28 23.7053 28C23.9073 28 24.0313 27.994 24.0643 27.992C24.3088 27.9783 24.5396 27.8747 24.7123 27.701L26.5723 25.53C26.7417 25.3325 26.8276 25.0768 26.8115 24.817C26.7954 24.5573 26.6788 24.3141 26.4863 24.139L22.4223 20.443Z" fill="#012AA1"/>
</svg>
