<svg width="14" height="14" viewBox="0 0 14 14" fill="none" xmlns="http://www.w3.org/2000/svg">
<path d="M7.6523 3.26563H6.90074C6.83199 3.26563 6.77574 3.32188 6.77574 3.39063V7.69219C6.77574 7.73282 6.79449 7.77032 6.8273 7.79376L9.41012 9.67969C9.46637 9.72032 9.54449 9.70938 9.58512 9.65313L10.032 9.04376C10.0742 8.98594 10.0617 8.90782 10.0054 8.86876L7.7773 7.25782V3.39063C7.7773 3.32188 7.72105 3.26563 7.6523 3.26563ZM11.0867 4.44063L13.5367 5.03907C13.6148 5.05782 13.6914 4.99844 13.6914 4.91875L13.7039 2.39532C13.7039 2.29063 13.5836 2.23125 13.5023 2.29688L11.0398 4.22032C11.0212 4.23471 11.007 4.25407 10.9989 4.27616C10.9908 4.29826 10.9891 4.32219 10.994 4.3452C10.9989 4.36821 11.0102 4.38938 11.0266 4.40626C11.043 4.42314 11.0638 4.43506 11.0867 4.44063ZM13.707 9.14532L12.8211 8.84063C12.7902 8.83004 12.7564 8.83196 12.7269 8.84598C12.6974 8.85999 12.6745 8.88499 12.6632 8.91563C12.6336 8.99532 12.6023 9.07344 12.5695 9.15157C12.2914 9.80938 11.8929 10.4016 11.3836 10.9094C10.8798 11.4147 10.2829 11.8174 9.62574 12.0953C8.945 12.3831 8.21326 12.5309 7.47418 12.5297C6.7273 12.5297 6.00387 12.3844 5.32262 12.0953C4.66549 11.8174 4.06852 11.4147 3.5648 10.9094C3.05699 10.4016 2.65855 9.80938 2.37886 9.15157C2.09264 8.47045 1.94599 7.73882 1.94761 7.00001C1.94761 6.25313 2.09293 5.52813 2.38199 4.84688C2.66011 4.18907 3.05855 3.59688 3.56793 3.08907C4.07165 2.58378 4.66861 2.18103 5.32574 1.90313C6.00387 1.61406 6.72887 1.46875 7.47574 1.46875C8.22262 1.46875 8.94605 1.61406 9.6273 1.90313C10.2844 2.18103 10.8814 2.58378 11.3851 3.08907C11.5445 3.25 11.6945 3.41719 11.832 3.59375L12.7664 2.8625C11.5367 1.29063 9.62262 0.279689 7.47262 0.281252C3.72886 0.282814 0.722613 3.32344 0.760113 7.06876C0.797613 10.7484 3.7898 13.7188 7.47574 13.7188C10.3742 13.7188 12.8429 11.8813 13.7836 9.30782C13.807 9.24219 13.7726 9.16876 13.707 9.14532Z" fill="white"/>
</svg>
