<svg width="9" height="11" viewBox="0 0 9 11" fill="none" xmlns="http://www.w3.org/2000/svg">
<path fill-rule="evenodd" clip-rule="evenodd" d="M0.73517 0.73456C0.770005 0.699638 0.811386 0.67193 0.856945 0.653026C0.902504 0.634121 0.951345 0.62439 1.00067 0.62439C1.05 0.62439 1.09884 0.634121 1.1444 0.653026C1.18995 0.67193 1.23134 0.699638 1.26617 0.73456L5.76617 5.23456C5.80109 5.26939 5.8288 5.31078 5.8477 5.35633C5.86661 5.40189 5.87634 5.45073 5.87634 5.50006C5.87634 5.54939 5.86661 5.59823 5.8477 5.64378C5.8288 5.68934 5.80109 5.73073 5.76617 5.76556L1.26617 10.2656C1.19576 10.336 1.10025 10.3755 1.00067 10.3755C0.901089 10.3755 0.805585 10.336 0.73517 10.2656C0.664755 10.1951 0.625197 10.0996 0.625197 10.0001C0.625197 9.90048 0.664755 9.80497 0.73517 9.73456L4.97042 5.50006L0.73517 1.26556C0.700248 1.23073 0.672541 1.18934 0.653636 1.14379C0.634731 1.09823 0.625 1.04939 0.625 1.00006C0.625 0.950735 0.634731 0.901894 0.653636 0.856335C0.672541 0.810776 0.700248 0.769394 0.73517 0.73456V0.73456Z" fill="white"/>
<path fill-rule="evenodd" clip-rule="evenodd" d="M3.73517 0.73456C3.77 0.699638 3.81139 0.67193 3.85694 0.653026C3.9025 0.634121 3.95134 0.62439 4.00067 0.62439C4.05 0.62439 4.09884 0.634121 4.1444 0.653026C4.18995 0.67193 4.23134 0.699638 4.26617 0.73456L8.76617 5.23456C8.80109 5.26939 8.8288 5.31078 8.8477 5.35633C8.86661 5.40189 8.87634 5.45073 8.87634 5.50006C8.87634 5.54939 8.86661 5.59823 8.8477 5.64378C8.8288 5.68934 8.80109 5.73073 8.76617 5.76556L4.26617 10.2656C4.19576 10.336 4.10025 10.3755 4.00067 10.3755C3.90109 10.3755 3.80559 10.336 3.73517 10.2656C3.66476 10.1951 3.6252 10.0996 3.6252 10.0001C3.6252 9.90048 3.66476 9.80497 3.73517 9.73456L7.97042 5.50006L3.73517 1.26556C3.70025 1.23073 3.67254 1.18934 3.65364 1.14379C3.63473 1.09823 3.625 1.04939 3.625 1.00006C3.625 0.950735 3.63473 0.901894 3.65364 0.856335C3.67254 0.810776 3.70025 0.769394 3.73517 0.73456V0.73456Z" fill="white"/>
</svg>
