<svg width="168" height="155" viewBox="0 0 168 155" fill="none" xmlns="http://www.w3.org/2000/svg">
<path d="M47.8047 73.7174C47.8047 83.6585 55.8636 91.7174 65.8047 91.7174L92.8047 91.7174C95.5661 91.7174 97.8047 89.4788 97.8047 86.7174L97.8047 52.7174C97.8047 47.1946 93.3275 42.7174 87.8047 42.7174L52.8047 42.7174C50.0433 42.7174 47.8047 44.956 47.8047 47.7174L47.8047 73.7174Z" fill="#FFC9AB"/>
<path d="M96.3888 87.6589C95.0305 87.9623 93.7075 88.5251 92.502 89.312C89.3612 91.3119 87.534 94.1685 88.421 95.6919C89.308 97.2153 92.573 96.8282 95.7138 94.8283C96.9355 94.0693 98.0209 93.0989 98.903 91.9771C99.3124 91.4351 99.3859 90.7594 99.0906 90.254L97.9384 88.275C97.6452 87.7681 97.0371 87.5266 96.3888 87.6589Z" fill="#D5D6DB"/>
<path d="M88.5012 60.6659C87.5163 60.886 86.5569 61.2943 85.6826 61.8649C83.4058 63.3147 82.0801 65.386 82.7228 66.4897C83.3654 67.5934 85.7338 67.3125 88.0104 65.8629C88.8963 65.3122 89.6832 64.6082 90.323 63.7947C90.6195 63.4018 90.6726 62.9123 90.4586 62.5459L89.6242 61.113C89.412 60.7455 88.9713 60.57 88.5012 60.6659Z" fill="#D5D6DB"/>
<path d="M75.6877 61.7884C75.4685 61.7638 75.2347 61.822 75.0319 61.9515L69.6838 65.3572C69.2365 65.6411 69.0575 66.1886 69.2844 66.5801C69.3363 66.6698 69.4074 66.7464 69.4936 66.8055L82.6755 75.9035L100.509 64.5472L75.6877 61.7884Z" fill="#029BC5"/>
<path d="M132.064 60.5272L83.5323 91.0705L54.8196 102.485L40.1764 105.387L38.5654 102.646L119.46 52.7147C121.871 51.2203 124.557 50.3039 127.246 50.0587C128.423 49.9576 129.586 49.9977 130.707 50.1775C131.701 50.3291 132.644 50.6208 133.508 51.044C134.472 51.5234 136.306 51.58 136.901 52.5342C136.903 52.5326 138.305 56.9122 132.064 60.5272Z" fill="#E1E6E9"/>
<path d="M84.1754 87.0126L63.1807 120.49C62.9184 120.96 63.0741 121.487 63.528 121.667C63.8066 121.777 64.1475 121.734 64.4339 121.552L69.7779 118.163C70.8057 117.511 71.7158 116.683 72.452 115.729L113.168 67.8579L84.1754 87.0126Z" fill="#029BC5"/>
<path d="M31.1959 85.8977C30.8456 85.7777 30.4289 85.8396 30.077 86.0634L25.6597 88.8744C25.0578 89.2571 24.8179 89.9936 25.1238 90.5196C25.1821 90.6196 25.2578 90.7076 25.3485 90.7802L37.7256 100.704L50.7383 92.5829L31.1959 85.8977Z" fill="#029BC5"/>
<path d="M41.8738 102.486L35.2124 111.817C35.1147 111.951 35.1377 112.12 35.2637 112.193C35.3545 112.246 35.4785 112.237 35.5793 112.169L39.7075 109.555C39.7396 109.534 39.7686 109.509 39.7926 109.48L49.526 97.6437L41.8738 102.486Z" fill="#029BC5"/>
<path d="M129.911 50.5757C128.756 50.3894 127.558 50.3489 126.346 50.4546C125.165 52.1057 124.41 53.9607 124.157 55.8349C124.138 56.2114 124.442 56.4826 124.834 56.4407C124.957 56.4275 125.078 56.3847 125.187 56.316L132.795 51.4748C131.906 51.0354 130.934 50.7327 129.911 50.5757Z" fill="#029BC5"/>
<path d="M113.331 59.4796L118.298 56.346L122.925 64.2184L117.958 67.352L113.331 59.4796Z" fill="#D5D6DB"/>
<path d="M110.206 62.5944C109.608 62.9731 109.368 63.7018 109.672 64.2218L110.165 65.0642C110.488 65.571 111.228 65.6607 111.816 65.2644C112.376 64.887 112.601 64.2004 112.331 63.6931L111.839 62.8506C111.535 62.3311 110.805 62.2162 110.206 62.5944Z" fill="#3A556A"/>
<path d="M105.742 65.3668C105.144 65.7456 104.905 66.4742 105.208 66.9942L105.701 67.8367C106.025 68.3435 106.764 68.4331 107.352 68.0368C107.912 67.6594 108.137 66.9729 107.868 66.4656L107.375 65.6231C107.071 65.1037 106.34 64.9888 105.742 65.3668Z" fill="#3A556A"/>
<path d="M101.276 68.1402C100.678 68.5194 100.44 69.2472 100.744 69.7667L101.236 70.6092C101.56 71.1159 102.299 71.2056 102.887 70.8093C103.447 70.4319 103.672 69.7454 103.403 69.2381L102.91 68.3956C102.606 67.8756 101.875 67.7613 101.276 68.1402Z" fill="#3A556A"/>
<path d="M96.8122 70.9125C96.2144 71.2918 95.976 72.0196 96.2797 72.5392L96.772 73.3816C97.0959 73.8884 97.8352 73.978 98.4234 73.5817C98.9832 73.2043 99.2086 72.5178 98.9388 72.0105L98.4465 71.168C98.1423 70.6482 97.4107 70.5338 96.8122 70.9125Z" fill="#3A556A"/>
<path d="M92.348 73.6852C91.7498 74.0646 91.5114 74.7927 91.8152 75.3125L92.3078 76.1553C92.6115 76.6749 93.3427 76.7892 93.9411 76.4106C94.5394 76.032 94.7783 75.304 94.4746 74.7844L93.982 73.9416C93.679 73.4216 92.948 73.3065 92.3493 73.6844C92.3488 73.6847 92.3485 73.6849 92.348 73.6852Z" fill="#3A556A"/>
<path d="M87.8832 76.4577C87.285 76.8371 87.0465 77.5652 87.3503 78.085L87.843 78.9278C88.1467 79.4473 88.8779 79.5616 89.4762 79.1831C90.0746 78.8045 90.3134 78.0764 90.0097 77.5569L89.5171 76.7141C89.2142 76.194 88.4832 76.079 87.8845 76.4569C87.884 76.4572 87.8835 76.4575 87.8832 76.4577Z" fill="#3A556A"/>
<path d="M83.4193 79.2302C82.8211 79.6096 82.5826 80.3377 82.8864 80.8575L83.3791 81.7003C83.6835 82.2193 84.4151 82.3325 85.0128 81.9534C85.6095 81.575 85.8479 80.8485 85.5456 80.3295L85.0529 79.4868C84.7494 78.9668 84.0182 78.8519 83.4193 79.2302Z" fill="#3A556A"/>
<path d="M78.9545 82.0027C78.3563 82.382 78.1178 83.1102 78.4216 83.63L78.9142 84.4728C79.2187 84.9919 79.9503 85.105 80.548 84.7259C81.1447 84.3475 81.383 83.621 81.0807 83.102L80.5881 82.2592C80.2845 81.7393 79.5533 81.6244 78.9545 82.0027Z" fill="#3A556A"/>
<path d="M74.4896 84.7751C73.8914 85.1545 73.6529 85.8826 73.9568 86.4024L74.4494 87.2452C74.7538 87.7642 75.4854 87.8774 76.0831 87.4983C76.6798 87.1199 76.9182 86.3934 76.6159 85.8745L76.1233 85.0317C75.8194 84.5119 75.0882 84.397 74.4896 84.7751Z" fill="#3A556A"/>
<path d="M70.0238 87.5483C69.4255 87.9269 69.1866 88.655 69.4903 89.1745L69.4909 89.1756L69.9836 90.0184C70.288 90.5375 71.0196 90.6507 71.6173 90.2716C72.214 89.8932 72.4523 89.1666 72.1501 88.6477L71.6574 87.8049C71.3539 87.2849 70.6226 87.17 70.0238 87.5483Z" fill="#3A556A"/>
<path d="M65.5609 90.3201C64.9626 90.6986 64.7237 91.4267 65.0274 91.9462L65.0281 91.9473L65.5207 92.7901C65.8251 93.3092 66.5567 93.4223 67.1545 93.0433C67.7511 92.6648 67.9895 91.9383 67.6872 91.4194L67.1946 90.5766C66.8908 90.0568 66.1595 89.9419 65.5609 90.3201Z" fill="#3A556A"/>
</svg>
