<svg width="100" height="100" viewBox="0 0 100 100" fill="none" xmlns="http://www.w3.org/2000/svg">
<circle cx="50" cy="50" r="50" fill="#012AA1"/>
<path d="M67.2695 39.945C68.0649 41.3226 67.9583 42.9629 66.9902 44.2255L45.7368 71.9598C44.8603 73.1035 43.417 73.6866 41.9413 73.4033C40.4961 73.1254 39.3503 72.0719 38.9526 70.6551L35.8078 59.4627L35.4803 58.2985L34.6359 57.4328L26.5154 49.1132C25.4872 48.0604 25.1478 46.5413 25.6297 45.1508C26.1066 43.7762 27.3028 42.7788 28.7775 42.5855L63.4229 38.0467C65.0003 37.8397 66.4742 38.5675 67.2695 39.945Z" fill="white"/>
<path d="M35.8083 59.4627L38.953 70.6551C39.3507 72.072 40.4965 73.1254 41.9417 73.4034C43.4175 73.6867 44.8607 73.1036 45.7372 71.9599L66.9906 44.2255C67.9587 42.963 68.0653 41.3227 67.2699 39.9451L35.4808 58.2985L35.8083 59.4627Z" fill="white"/>
<path d="M48.4174 50.8296C48.7408 51.3898 48.5494 52.1067 47.9884 52.4306L35.8087 59.4625L35.4812 58.2984L34.6367 57.4326L46.8164 50.4007C47.3774 50.0769 48.0939 50.2694 48.4174 50.8296Z" fill="url(#paint0_linear_88_600)"/>
<path d="M35.8086 59.4627L47.9883 52.4308C48.5491 52.107 48.7407 51.3901 48.4172 50.8299L35.4811 58.2985L35.8086 59.4627Z" fill="url(#paint1_linear_88_600)"/>
<defs>
<linearGradient id="paint0_linear_88_600" x1="44.0278" y1="52.0866" x2="45.3365" y2="54.7109" gradientUnits="userSpaceOnUse">
<stop stop-color="#747DEF"/>
<stop offset="1" stop-color="#5E3BE1"/>
</linearGradient>
<linearGradient id="paint1_linear_88_600" x1="44.5972" y1="53.0733" x2="45.2922" y2="54.3667" gradientUnits="userSpaceOnUse">
<stop stop-color="#747DEF"/>
<stop offset="1" stop-color="#5E3BE1"/>
</linearGradient>
</defs>
</svg>
