<svg width="21" height="21" viewBox="0 0 21 21" fill="none" xmlns="http://www.w3.org/2000/svg">
<path d="M20.769 1.67685L12.3226 20.1053C12.2519 20.2597 12.132 20.3863 11.9818 20.4653C11.8315 20.5443 11.6593 20.5713 11.492 20.542C11.3248 20.5128 11.172 20.4289 11.0575 20.3036C10.943 20.1782 10.8732 20.0184 10.8592 19.8492L10.1451 11.2825L1.57831 10.5684C1.40912 10.5544 1.24935 10.4846 1.124 10.3701C0.998649 10.2556 0.914783 10.1028 0.885518 9.93558C0.856253 9.76834 0.883239 9.59612 0.962256 9.44585C1.04127 9.29558 1.16786 9.17574 1.32223 9.10506L19.7508 0.65868C19.8933 0.59339 20.0523 0.573255 20.2065 0.600978C20.3608 0.628701 20.5028 0.702954 20.6137 0.813766C20.7245 0.924579 20.7987 1.06664 20.8265 1.22089C20.8542 1.37513 20.834 1.53416 20.7687 1.67662L20.769 1.67685Z" fill="#5E6282"/>
</svg>
