<svg width="264" height="352" viewBox="0 0 264 352" fill="none" xmlns="http://www.w3.org/2000/svg">
<g opacity="0.25">
<mask id="mask0_88_571" style="mask-type:alpha" maskUnits="userSpaceOnUse" x="0" y="0" width="264" height="352">
<path d="M0.5 0.5H240C252.979 0.5 263.5 11.0213 263.5 24V351.021H50C22.6619 351.021 0.5 328.86 0.5 301.521V0.5Z" fill="url(#paint0_linear_88_571)" stroke="#6246E5"/>
</mask>
<g mask="url(#mask0_88_571)">
<path d="M330.318 178.32C330.318 228.745 289.44 269.623 239.014 269.623C188.589 269.623 147.711 228.745 147.711 178.32C147.711 127.894 188.589 87.0166 239.014 87.0166C289.44 87.0166 330.318 127.894 330.318 178.32Z" stroke="#012AA1" stroke-width="2"/>
<path d="M333.962 168.604C333.962 225.066 288.19 270.837 231.728 270.837C175.266 270.837 129.494 225.066 129.494 168.604C129.494 112.141 175.266 66.3696 231.728 66.3696C288.19 66.3696 333.962 112.141 333.962 168.604Z" stroke="#012AA1" stroke-width="2"/>
<path d="M337.605 160.709C337.605 222.538 287.484 272.66 225.655 272.66C163.827 272.66 113.705 222.538 113.705 160.709C113.705 98.8811 163.827 48.7593 225.655 48.7593C287.484 48.7593 337.605 98.8811 337.605 160.709Z" stroke="#012AA1" stroke-width="2"/>
<path d="M340.034 149.171C340.034 215.695 286.106 269.623 219.583 269.623C153.059 269.623 99.1309 215.695 99.1309 149.171C99.1309 82.6478 153.059 28.7197 219.583 28.7197C286.106 28.7197 340.034 82.6478 340.034 149.171Z" stroke="#012AA1" stroke-width="2"/>
<path d="M342.464 137.937C342.464 208.988 284.865 266.587 213.814 266.587C142.763 266.587 85.1641 208.988 85.1641 137.937C85.1641 66.886 142.763 9.2876 213.814 9.2876C284.865 9.2876 342.464 66.886 342.464 137.937Z" stroke="#012AA1" stroke-width="2"/>
<path d="M345.5 125.185C345.5 203.279 282.192 266.587 204.097 266.587C126.003 266.587 62.6953 203.279 62.6953 125.185C62.6953 47.0906 126.003 -16.2173 204.097 -16.2173C282.192 -16.2173 345.5 47.0906 345.5 125.185Z" stroke="#012AA1" stroke-width="2"/>
</g>
</g>
<defs>
<linearGradient id="paint0_linear_88_571" x1="187.239" y1="9.86233" x2="5.23235" y2="354.286" gradientUnits="userSpaceOnUse">
<stop stop-color="#747DEF"/>
<stop offset="1" stop-color="#5E3BE1"/>
</linearGradient>
</defs>
</svg>
