<svg width="481" height="361" viewBox="0 0 481 361" fill="none" xmlns="http://www.w3.org/2000/svg">
<g opacity="0.2">
<mask id="mask0_88_580" style="mask-type:alpha" maskUnits="userSpaceOnUse" x="0" y="0" width="481" height="361">
<rect x="479.502" y="0.5" width="360" height="479" transform="rotate(90 479.502 0.5)" fill="url(#paint0_linear_88_580)" stroke="#6246E5"/>
</mask>
<g mask="url(#mask0_88_580)">
<path d="M236.506 453.42C167.45 453.42 111.467 397.359 111.467 328.202C111.467 259.045 167.45 202.984 236.506 202.984C305.563 202.984 361.546 259.045 361.546 328.202C361.546 397.359 305.562 453.42 236.506 453.42Z" stroke="#012AA1" stroke-width="2"/>
<path d="M249.774 458.402C172.475 458.402 109.809 395.65 109.809 318.238C109.809 240.825 172.475 178.073 249.774 178.073C327.073 178.073 389.739 240.825 389.739 318.238C389.739 395.65 327.073 458.402 249.774 458.402Z" stroke="#012AA1" stroke-width="2"/>
<path d="M260.554 463.385C175.927 463.385 107.321 394.684 107.321 309.934C107.321 225.184 175.927 156.483 260.554 156.483C345.18 156.483 413.786 225.184 413.786 309.934C413.786 394.684 345.18 463.385 260.554 463.385Z" stroke="#012AA1" stroke-width="2"/>
<path d="M276.309 466.707C185.271 466.707 111.468 392.801 111.468 301.63C111.468 210.46 185.271 136.554 276.309 136.554C367.347 136.554 441.15 210.46 441.15 301.63C441.15 392.801 367.347 466.707 276.309 466.707Z" stroke="#012AA1" stroke-width="2"/>
<path d="M291.649 470.027C194.428 470.027 115.613 391.103 115.613 293.741C115.613 196.38 194.428 117.455 291.649 117.455C388.869 117.455 467.685 196.38 467.685 293.741C467.685 391.103 388.869 470.027 291.649 470.027Z" stroke="#012AA1" stroke-width="2"/>
<path d="M309.063 474.18C202.225 474.18 115.614 387.448 115.614 280.456C115.614 173.463 202.225 86.7314 309.063 86.7314C415.9 86.7314 502.512 173.463 502.512 280.456C502.512 387.448 415.9 474.18 309.063 474.18Z" stroke="#012AA1" stroke-width="2"/>
</g>
</g>
<defs>
<linearGradient id="paint0_linear_88_580" x1="736.037" y1="13.4669" x2="487.706" y2="484.066" gradientUnits="userSpaceOnUse">
<stop stop-color="#747DEF"/>
<stop offset="1" stop-color="#5E3BE1"/>
</linearGradient>
</defs>
</svg>
