<svg width="36" height="36" viewBox="0 0 36 36" fill="none" xmlns="http://www.w3.org/2000/svg">
<circle cx="18" cy="18" r="18" fill="#F5F5F5"/>
<g clip-path="url(#clip0_268_14)">
<path d="M24.6538 12.1508C24.2849 12.0429 15.2618 11.1445 12.093 15.4257C10.6896 17.3222 10.6685 19.9221 12.0227 23.1525C11.6792 23.8655 11.3784 24.6166 11.1333 25.4091C11.0588 25.6499 11.1936 25.9052 11.4342 25.9795C11.479 25.9934 11.5244 26 11.5693 26C11.7637 26 11.9443 25.8744 12.0045 25.6787C14.4198 17.8703 22.2687 14.0927 24.6756 13.1383C24.9099 13.0454 25.2229 12.3174 24.6538 12.1508Z" fill="#012AA1"/>
<path d="M13.4727 24.1298C14.7791 24.6778 16.0853 24.9587 17.3 24.9587C18.3918 24.9587 19.41 24.7342 20.2874 24.279C22.0532 23.363 23.1323 21.6108 23.4078 19.2113C23.6885 16.7659 24.038 15.2342 24.3296 14.2971C21.7343 15.4943 16.1695 18.5974 13.4727 24.1298Z" fill="#012AA1"/>
</g>
<defs>
<clipPath id="clip0_268_14">
<rect width="14" height="14" fill="white" transform="translate(11 12)"/>
</clipPath>
</defs>
</svg>
