<svg width="36" height="36" viewBox="0 0 36 36" fill="none" xmlns="http://www.w3.org/2000/svg">
<circle cx="18" cy="18" r="18" fill="#F5F5F5"/>
<g clip-path="url(#clip0_268_28)">
<path d="M23.5 11C23.4224 11 23.3458 11.018 23.2763 11.0527L19.4874 12.9477L15.2029 11.0432C15.1959 11.0403 15.1879 11.0397 15.1804 11.0367C15.1612 11.0295 15.1414 11.0235 15.1214 11.0187C15.1015 11.0134 15.0813 11.0092 15.0609 11.0062C15.0203 11.0029 14.9795 11.0029 14.9389 11.0062C14.9185 11.0092 14.8983 11.0134 14.8784 11.0187C14.8584 11.0235 14.8387 11.0295 14.8194 11.0367C14.8119 11.0397 14.8039 11.0402 14.7969 11.0432L10.297 13.0432C10.1164 13.1234 9.99997 13.3026 10 13.5002V24.5C10.0001 24.6692 10.0857 24.8268 10.2275 24.919C10.3693 25.0114 10.5483 25.0257 10.703 24.957L14.9999 23.047L19.2968 24.957C19.3043 24.96 19.3123 24.957 19.3198 24.9615C19.4409 25.0157 19.5798 25.0126 19.6983 24.953C19.7063 24.9496 19.7153 24.953 19.7233 24.9475L23.7232 22.9476C23.8927 22.8629 23.9998 22.6896 23.9997 22.5V11.5002C23.9999 11.2241 23.7761 11.0001 23.5 11ZM14.4999 22.1751L11 23.7305V13.8252L14.4999 12.2697V22.1751ZM18.9999 23.7305L15.4999 22.1751V12.2697L18.9999 13.8252V23.7305ZM22.9998 22.1911L19.9998 23.691V13.8092L22.9998 12.3092V22.1911Z" fill="#012AA1"/>
</g>
<defs>
<clipPath id="clip0_268_28">
<rect width="14" height="14" fill="white" transform="translate(10 11)"/>
</clipPath>
</defs>
</svg>
