<svg width="36" height="36" viewBox="0 0 36 36" fill="none" xmlns="http://www.w3.org/2000/svg">
<circle cx="18" cy="18" r="18" fill="#F5F5F5"/>
<path d="M23.3429 13.2424L17.0254 19.5832C16.953 19.5413 16.8768 19.5061 16.7979 19.4782L12.6271 18.0666C12.5009 18.0349 12.389 17.9621 12.309 17.8596C12.229 17.7571 12.1855 17.6308 12.1855 17.5007C12.1855 17.3707 12.229 17.2444 12.309 17.1419C12.389 17.0394 12.5009 16.9665 12.6271 16.9349L22.9754 13.2541C23.043 13.2311 23.114 13.2193 23.1854 13.2191C23.2388 13.2182 23.292 13.2261 23.3429 13.2424Z" fill="#012AA1"/>
<path d="M23.7451 14.0242L20.0643 24.3842C20.0237 24.505 19.9447 24.6091 19.8394 24.6807C19.7341 24.7524 19.6082 24.7875 19.481 24.7809C19.3523 24.7868 19.2253 24.7499 19.1198 24.6761C19.0142 24.6022 18.9361 24.4955 18.8976 24.3726L17.5093 20.2017C17.4814 20.1228 17.4463 20.0467 17.4043 19.9742L23.7568 13.6567C23.7926 13.7773 23.7885 13.9062 23.7451 14.0242Z" fill="#012AA1"/>
</svg>
