<svg width="223" height="199" viewBox="0 0 223 199" fill="none" xmlns="http://www.w3.org/2000/svg">
<path d="M12.6104 11.5586L14.4795 11.5586L14.4795 0.837891L12.6104 0.837891L12.6104 11.5586ZM8.04492 7.19727L19.4316 7.19727L19.4316 5.20996L8.04492 5.20996L8.04492 7.19727Z" fill="#012AA1"/>
<path d="M59.6279 11.5586L61.4971 11.5586L61.4971 0.837891L59.6279 0.837891L59.6279 11.5586ZM55.0625 7.19727L66.4492 7.19727L66.4492 5.20996L55.0625 5.20996L55.0625 7.19727Z" fill="#7A7979"/>
<path d="M106.646 11.5586L108.516 11.5586L108.516 0.837891L106.646 0.837891L106.646 11.5586ZM102.081 7.19727L113.468 7.19727L113.468 5.20996L102.081 5.20996L102.081 7.19727Z" fill="#7A7979"/>
<path d="M12.6104 57.0814L14.4795 57.0814L14.4795 46.3607L12.6104 46.3607L12.6104 57.0814ZM8.04492 52.7201L19.4316 52.7201L19.4316 50.7328L8.04492 50.7328L8.04492 52.7201Z" fill="#7A7979"/>
<path d="M59.6279 57.0814L61.4971 57.0814L61.4971 46.3607L59.6279 46.3607L59.6279 57.0814ZM55.0625 52.7201L66.4492 52.7201L66.4492 50.7328L55.0625 50.7328L55.0625 52.7201Z" fill="#DF6951"/>
<path d="M106.646 57.0814L108.516 57.0814L108.516 46.3607L106.646 46.3607L106.646 57.0814ZM102.081 52.7201L113.468 52.7201L113.468 50.7328L102.081 50.7328L102.081 52.7201Z" fill="#7A7979"/>
<path d="M12.6104 102.604L14.4795 102.604L14.4795 91.8837L12.6104 91.8837L12.6104 102.604ZM8.04492 98.243L19.4316 98.243L19.4316 96.2557L8.04492 96.2557L8.04492 98.243Z" fill="#7A7979"/>
<path d="M59.6279 102.604L61.4971 102.604L61.4971 91.8837L59.6279 91.8837L59.6279 102.604ZM55.0625 98.243L66.4492 98.243L66.4492 96.2557L55.0625 96.2557L55.0625 98.243Z" fill="#7A7979"/>
<path d="M106.646 102.604L108.516 102.604L108.516 91.8837L106.646 91.8837L106.646 102.604ZM102.081 98.243L113.468 98.243L113.468 96.2557L102.081 96.2557L102.081 98.243Z" fill="#6246E5"/>
<path d="M153.665 102.604L155.534 102.604L155.534 91.8837L153.665 91.8837L153.665 102.604ZM149.1 98.243L160.486 98.243L160.486 96.2557L149.1 96.2557L149.1 98.243Z" fill="#7A7979"/>
<path d="M12.6104 148.127L14.4795 148.127L14.4795 137.406L12.6104 137.406L12.6104 148.127ZM8.04492 143.766L19.4316 143.766L19.4316 141.779L8.04492 141.779L8.04492 143.766Z" fill="#7A7979"/>
<path d="M59.6279 148.127L61.4971 148.127L61.4971 137.406L59.6279 137.406L59.6279 148.127ZM55.0625 143.766L66.4492 143.766L66.4492 141.779L55.0625 141.779L55.0625 143.766Z" fill="#7A7979"/>
<path d="M106.646 148.127L108.516 148.127L108.516 137.406L106.646 137.406L106.646 148.127ZM102.081 143.766L113.468 143.766L113.468 141.779L102.081 141.779L102.081 143.766Z" fill="#7A7979"/>
<path d="M153.665 148.127L155.534 148.127L155.534 137.406L153.665 137.406L153.665 148.127ZM149.1 143.766L160.486 143.766L160.486 141.779L149.1 141.779L149.1 143.766Z" fill="#DF6951"/>
<path d="M200.683 148.127L202.552 148.127L202.552 137.406L200.683 137.406L200.683 148.127ZM196.117 143.766L207.504 143.766L207.504 141.779L196.117 141.779L196.117 143.766Z" fill="#7A7979"/>
<path d="M12.6104 193.65L14.4795 193.65L14.4795 182.929L12.6104 182.929L12.6104 193.65ZM8.04492 189.289L19.4316 189.289L19.4316 187.302L8.04492 187.302L8.04492 189.289Z" fill="#7A7979"/>
<path d="M59.6279 193.65L61.4971 193.65L61.4971 182.929L59.6279 182.929L59.6279 193.65ZM55.0625 189.289L66.4492 189.289L66.4492 187.302L55.0625 187.302L55.0625 189.289Z" fill="#7A7979"/>
<path d="M106.646 193.65L108.516 193.65L108.516 182.929L106.646 182.929L106.646 193.65ZM102.081 189.289L113.468 189.289L113.468 187.302L102.081 187.302L102.081 189.289Z" fill="#7A7979"/>
<path d="M153.665 193.65L155.534 193.65L155.534 182.929L153.665 182.929L153.665 193.65ZM149.1 189.289L160.486 189.289L160.486 187.302L149.1 187.302L149.1 189.289Z" fill="#7A7979"/>
<path d="M200.683 193.65L202.552 193.65L202.552 182.929L200.683 182.929L200.683 193.65ZM196.117 189.289L207.504 189.289L207.504 187.302L196.117 187.302L196.117 189.289Z" fill="#012AA1"/>
</svg>
