<svg width="206" height="223" viewBox="0 0 206 223" fill="none" xmlns="http://www.w3.org/2000/svg">
<path d="M11.5586 12.6104V14.4795H0.837891V12.6104H11.5586ZM7.19727 8.04492V19.4316H5.20996V8.04492H7.19727Z" fill="#FF7152"/>
<path d="M11.5586 59.6284V61.4976H0.837891V59.6284H11.5586ZM7.19727 55.063V66.4497H5.20996V55.063H7.19727Z" fill="#2E2E2E"/>
<path d="M11.5586 106.646V108.516H0.837891V106.646H11.5586ZM7.19727 102.081V113.468H5.20996V102.081H7.19727Z" fill="#2E2E2E"/>
<path d="M58.5762 12.6104V14.4795H47.8555V12.6104H58.5762ZM54.2148 8.04492V19.4316H52.2275V8.04492H54.2148Z" fill="#2E2E2E"/>
<path d="M58.5762 59.6284V61.4976H47.8555V59.6284H58.5762ZM54.2148 55.063V66.4497H52.2275V55.063H54.2148Z" fill="#012AA1"/>
<path d="M58.5762 106.646V108.516H47.8555V106.646H58.5762ZM54.2148 102.081V113.468H52.2275V102.081H54.2148Z" fill="#2E2E2E"/>
<path d="M58.5762 153.665V155.534H47.8555V153.665H58.5762ZM54.2148 149.099V160.486H52.2275V149.099H54.2148Z" fill="#2E2E2E"/>
<path d="M105.596 12.6104V14.4795H94.875V12.6104H105.596ZM101.234 8.04492V19.4316H99.2471V8.04492H101.234Z" fill="#2E2E2E"/>
<path d="M105.596 59.6284V61.4976H94.875V59.6284H105.596ZM101.234 55.063V66.4497H99.2471V55.063H101.234Z" fill="#2E2E2E"/>
<path d="M105.596 106.646V108.516H94.875V106.646H105.596ZM101.234 102.081V113.468H99.2471V102.081H101.234Z" fill="#DF6951"/>
<path d="M105.596 153.665V155.534H94.875V153.665H105.596ZM101.234 149.099V160.486H99.2471V149.099H101.234Z" fill="#2E2E2E"/>
<path d="M105.596 200.683V202.552H94.875V200.683H105.596ZM101.234 196.117V207.504H99.2471V196.117H101.234Z" fill="#2E2E2E"/>
<path d="M152.613 12.6104V14.4795H141.893V12.6104H152.613ZM148.252 8.04492V19.4316H146.265V8.04492H148.252Z" fill="#7A7979"/>
<path d="M152.613 59.6284V61.4976H141.893V59.6284H152.613ZM148.252 55.063V66.4497H146.265V55.063H148.252Z" fill="#7A7979"/>
<path d="M152.613 106.646V108.516H141.893V106.646H152.613ZM148.252 102.081V113.468H146.265V102.081H148.252Z" fill="#7A7979"/>
<path d="M152.613 153.665V155.534H141.893V153.665H152.613ZM148.252 149.099V160.486H146.265V149.099H148.252Z" fill="#012AA1"/>
<path d="M152.613 200.683V202.552H141.893V200.683H152.613ZM148.252 196.117V207.504H146.265V196.117H148.252Z" fill="#7A7979"/>
<path d="M199.631 12.6104V14.4795H188.91V12.6104H199.631ZM195.27 8.04492V19.4316H193.282V8.04492H195.27Z" fill="#7A7979"/>
<path d="M199.631 59.6284V61.4976H188.91V59.6284H199.631ZM195.27 55.063V66.4497H193.282V55.063H195.27Z" fill="#7A7979"/>
<path d="M199.631 106.646V108.516H188.91V106.646H199.631ZM195.27 102.081V113.468H193.282V102.081H195.27Z" fill="#7A7979"/>
<path d="M199.631 153.665V155.534H188.91V153.665H199.631ZM195.27 149.099V160.486H193.282V149.099H195.27Z" fill="#7A7979"/>
<path d="M199.631 200.683V202.552H188.91V200.683H199.631ZM195.27 196.117V207.504H193.282V196.117H195.27Z" fill="#DF6951"/>
</svg>
