<svg width="16" height="16" viewBox="0 0 16 16" fill="none" xmlns="http://www.w3.org/2000/svg">
<path d="M7.5994 0.00250175C6.3154 0.0180018 3.5549 0.229002 2.0109 1.6455C0.862395 2.7835 0.461395 4.466 0.414395 6.5465C0.375395 8.6195 0.328395 12.5125 4.0809 13.5725V15.187C4.0809 15.187 4.0574 15.833 4.4844 15.9655C5.0104 16.132 5.3099 15.635 5.8099 15.101L6.7424 14.0465C9.3099 14.26 11.2764 13.768 11.5029 13.695C12.0239 13.5285 14.9584 13.1535 15.4379 9.26C15.9299 5.239 15.1984 2.7055 13.8779 1.5595H13.8699C13.4714 1.1925 11.8699 0.0255018 8.2919 0.0125018C8.2919 0.0125018 8.0264 -0.00499825 7.5994 0.00250175ZM7.6434 1.133C8.0079 1.1305 8.2294 1.146 8.2294 1.146C11.2579 1.154 12.7034 2.0655 13.0444 2.3725C14.1564 3.3255 14.7294 5.6095 14.3099 8.9665C13.9114 12.2215 11.5314 12.4275 11.0909 12.568C10.9034 12.628 9.1714 13.055 6.9894 12.9145C6.9894 12.9145 5.3644 14.8755 4.8564 15.3805C4.7759 15.469 4.6819 15.495 4.6219 15.482C4.5359 15.461 4.5099 15.3545 4.5149 15.2085L4.5304 12.529C1.3479 11.649 1.5354 8.3285 1.5694 6.594C1.6084 4.8595 1.9339 3.4405 2.9029 2.4795C4.2074 1.3 6.5514 1.141 7.6424 1.133H7.6434ZM7.8834 2.867C7.8572 2.86674 7.83122 2.87166 7.80693 2.88149C7.78265 2.89131 7.76056 2.90585 7.74192 2.92425C7.72328 2.94266 7.70847 2.96457 7.69834 2.98873C7.68821 3.01288 7.68296 3.03881 7.6829 3.065C7.6829 3.177 7.7739 3.2655 7.8834 3.2655C8.37915 3.25607 8.87186 3.34489 9.33312 3.52681C9.79438 3.70874 10.2151 3.98019 10.5709 4.3255C11.2974 5.031 11.6514 5.979 11.6649 7.2185C11.6649 7.328 11.7534 7.419 11.8654 7.419V7.411C11.9182 7.41114 11.9689 7.3904 12.0064 7.35331C12.044 7.31622 12.0654 7.26578 12.0659 7.213C12.0902 6.62958 11.9956 6.04731 11.7878 5.50158C11.5801 4.95586 11.2635 4.45808 10.8574 4.0385C10.0659 3.265 9.0629 2.8665 7.8834 2.8665V2.867ZM5.2479 3.3255C5.10637 3.30482 4.96203 3.33323 4.8389 3.406H4.8284C4.54253 3.57357 4.285 3.78536 4.0654 4.0335C3.8829 4.2445 3.7839 4.458 3.7579 4.6635C3.7424 4.786 3.7529 4.9085 3.7894 5.0255L3.8024 5.0335C4.0079 5.6375 4.2764 6.2185 4.6044 6.7655C5.02691 7.53398 5.54687 8.24469 6.1514 8.88L6.1694 8.906L6.1979 8.927L6.2159 8.948L6.2369 8.966C6.87451 9.5723 7.58694 10.0947 8.3569 10.5205C9.2369 10.9995 9.7709 11.226 10.0914 11.32V11.325C10.1854 11.3535 10.2709 11.3665 10.3569 11.3665C10.63 11.3465 10.8886 11.2356 11.0914 11.0515C11.3384 10.8318 11.5478 10.5733 11.7114 10.286V10.281C11.8649 9.992 11.8129 9.7185 11.5914 9.5335C11.1478 9.14575 10.6681 8.80135 10.1589 8.505C9.8179 8.32 9.4714 8.432 9.3309 8.6195L9.0314 8.997C8.8779 9.1845 8.5989 9.1585 8.5989 9.1585L8.5909 9.1635C6.5104 8.632 5.9554 6.5255 5.9554 6.5255C5.9554 6.5255 5.9294 6.239 6.1219 6.093L6.4969 5.791C6.6764 5.645 6.8014 5.299 6.6089 4.9575C6.3146 4.44758 5.97095 3.96778 5.5829 3.525C5.49806 3.42062 5.37905 3.3496 5.2469 3.3245L5.2479 3.3255ZM8.2294 3.9195C7.9639 3.9195 7.9639 4.3205 8.2319 4.3205C8.56204 4.32586 8.88789 4.39622 9.19082 4.52757C9.49375 4.65892 9.76783 4.84868 9.9974 5.086C10.2068 5.31701 10.3677 5.58769 10.4706 5.88202C10.5735 6.17635 10.6163 6.48834 10.5964 6.7995C10.5973 6.85216 10.6188 6.90237 10.6563 6.93938C10.6938 6.97638 10.7442 6.99725 10.7969 6.9975L10.8049 7.008C10.858 7.00761 10.9087 6.98636 10.9462 6.94884C10.9838 6.91133 11.005 6.86056 11.0054 6.8075C11.0234 6.013 10.7764 5.3465 10.2919 4.8125C9.8049 4.2785 9.1254 3.979 8.2579 3.9195H8.2294ZM8.5579 4.9975C8.2844 4.9895 8.2739 5.3985 8.5449 5.4065C9.2039 5.4405 9.5239 5.7735 9.5659 6.4585C9.56681 6.5105 9.58804 6.56007 9.62505 6.59661C9.66205 6.63315 9.71189 6.65375 9.7639 6.654H9.7719C9.79863 6.65285 9.82487 6.64639 9.84908 6.635C9.8733 6.6236 9.895 6.60749 9.91292 6.58762C9.93084 6.56774 9.94462 6.5445 9.95346 6.51924C9.9623 6.49398 9.96601 6.46721 9.9644 6.4405C9.9174 5.5475 9.4304 5.0445 8.5659 4.998H8.5579V4.9975Z" fill="white"/>
</svg>
