<svg width="14" height="14" viewBox="0 0 14 14" fill="none" xmlns="http://www.w3.org/2000/svg">
<path d="M1.29531 11.2703L2.95938 12.9328C3.1625 13.1359 3.43438 13.25 3.72188 13.25C4.00938 13.25 4.28125 13.1375 4.48438 12.9328L6.27656 11.1438C6.47969 10.9406 6.59375 10.6672 6.59375 10.3797C6.59375 10.0906 6.48125 9.82031 6.27656 9.61563L4.87656 8.21406C5.19549 7.47096 5.65374 6.79579 6.22656 6.225C6.8 5.64844 7.47031 5.19375 8.21406 4.87188L9.61406 6.27344C9.81719 6.47656 10.0891 6.59063 10.3766 6.59063C10.5184 6.59115 10.6589 6.56337 10.7898 6.5089C10.9207 6.45443 11.0395 6.37438 11.1391 6.27344L12.9328 4.48438C13.1359 4.28125 13.25 4.00781 13.25 3.72031C13.25 3.43125 13.1375 3.16094 12.9328 2.95625L11.2703 1.29375C10.9234 0.946876 10.4453 0.748439 9.95469 0.748439C9.85313 0.748439 9.75469 0.75625 9.65469 0.773438C7.58594 1.11406 5.53281 2.21563 3.875 3.87188C2.21875 5.53125 1.11875 7.58438 0.775001 9.65469C0.676563 10.2422 0.873439 10.8469 1.29531 11.2703ZM1.88281 9.84063C2.1875 7.99844 3.17813 6.16094 4.67031 4.66875C6.1625 3.17656 7.99844 2.18594 9.84063 1.88125C10.0719 1.84219 10.3094 1.92031 10.4781 2.0875L12.1109 3.72031L10.3797 5.45313L8.50781 3.57813L8.49375 3.56406L8.15625 3.68906C7.13293 4.0653 6.20365 4.65956 5.43283 5.43066C4.662 6.20175 4.06807 7.13123 3.69219 8.15469L3.56719 8.49219L5.45469 10.3781L3.72344 12.1109L2.09063 10.4781C1.92188 10.3094 1.84375 10.0719 1.88281 9.84063Z" fill="white"/>
</svg>
